M48
;GenerationSoftware,Autodesk,EAGLE,9.6.2*%
;CreationDate,2022-04-21T23:00:00Z*%
FMAT,2
ICI,OFF
METRIC,TZ,000.000
T2C0.813
T1C1.016
%
G90
M71
T1
X3000Y114960
X3000Y117500
X3000Y120040
X3000Y122580
X29000Y62960
X29000Y65500
X29000Y68040
X29000Y70580
X3000Y8420
X3000Y10960
X3000Y13500
X3000Y16040
X3000Y18580
X55000Y10960
X29000Y112420
X29000Y114960
X29000Y117500
X29000Y8420
X29000Y10960
X29000Y13500
X29000Y16040
X3000Y34420
X3000Y36960
X3000Y39500
X3000Y42040
X3000Y44580
X29000Y18580
X29000Y120040
X29000Y122580
X55000Y13500
X55000Y16040
X29000Y86420
X29000Y88960
X29000Y91500
X3000Y60420
X3000Y62960
X3000Y65500
X3000Y68040
X3000Y70580
X29000Y94040
X107000Y42040
X29000Y34420
X29000Y36960
X29000Y39500
X29000Y42040
X29000Y44580
X29000Y96580
X3000Y86420
X3000Y88960
X3000Y91500
X3000Y94040
X3000Y96580
X55000Y18580
X55000Y39500
X55000Y42040
X55000Y44580
X55000Y34420
X55000Y36960
X55000Y8420
X29000Y60420
X3000Y112420
X55000Y60420
X55000Y62960
X55000Y65500
X55000Y68040
X55000Y70580
X55000Y86420
X55000Y88960
X55000Y91500
X55000Y94040
X55000Y96580
X55000Y112420
X55000Y114960
X55000Y117500
X55000Y120040
X55000Y122580
X81000Y8420
X81000Y10960
X81000Y13500
X81000Y16040
X81000Y18580
X81000Y34420
X81000Y36960
X81000Y39500
X81000Y42040
X81000Y44580
X81000Y60420
X81000Y62960
X81000Y65500
X81000Y68040
X81000Y70580
X81000Y86420
X81000Y88960
X81000Y91500
X81000Y94040
X81000Y96580
X81000Y112420
X81000Y114960
X81000Y117500
X81000Y120040
X81000Y122580
X107000Y8420
X107000Y10960
X107000Y13500
X107000Y16040
X107000Y18580
X107000Y34420
X107000Y36960
X107000Y39500
X107000Y44580
X107000Y60420
X107000Y62960
X107000Y65500
X107000Y68040
X107000Y70580
X107000Y86420
X107000Y88960
X107000Y91500
X107000Y94040
X107000Y96580
X107000Y112420
X107000Y114960
X107000Y117500
X107000Y120040
X107000Y122580
T2
X29889Y80111
X48111Y81889
X49889Y80111
X48111Y101889
X49889Y100111
X28111Y101889
X29889Y100111
X28111Y107889
X29889Y106111
X48111Y107889
X49889Y106111
X48111Y127889
X49889Y126111
X28111Y127889
X29889Y126111
X54111Y3889
X55889Y2111
X74111Y3889
X75889Y2111
X74111Y23889
X75889Y22111
X54111Y23889
X55889Y22111
X54111Y29889
X55889Y28111
X74111Y29889
X75889Y28111
X74111Y49889
X75889Y48111
X54111Y49889
X55889Y48111
X54111Y55889
X55889Y54111
X74111Y55889
X75889Y54111
X74111Y75889
X75889Y74111
X3889Y80111
X55889Y74111
X2111Y3889
X3889Y2111
X22111Y3889
X23889Y2111
X22111Y23889
X54111Y81889
X55889Y80111
X74111Y81889
X75889Y80111
X74111Y101889
X75889Y100111
X54111Y101889
X55889Y100111
X23889Y22111
X2111Y23889
X3889Y22111
X2111Y29889
X3889Y28111
X54111Y107889
X55889Y106111
X74111Y107889
X75889Y106111
X74111Y127889
X75889Y126111
X54111Y127889
X55889Y126111
X22111Y29889
X23889Y28111
X22111Y49889
X23889Y48111
X2111Y49889
X80111Y3889
X81889Y2111
X100111Y3889
X101889Y2111
X100111Y23889
X101889Y22111
X80111Y23889
X81889Y22111
X3889Y48111
X2111Y55889
X3889Y54111
X22111Y55889
X23889Y54111
X80111Y29889
X81889Y28111
X100111Y29889
X101889Y28111
X100111Y49889
X101889Y48111
X80111Y49889
X81889Y48111
X22111Y75889
X23889Y74111
X2111Y75889
X3889Y74111
X2111Y81889
X80111Y55889
X81889Y54111
X100111Y55889
X101889Y54111
X100111Y75889
X101889Y74111
X80111Y75889
X81889Y74111
X22111Y81889
X23889Y80111
X22111Y101889
X23889Y100111
X2111Y101889
X80111Y81889
X81889Y80111
X100111Y81889
X101889Y80111
X100111Y101889
X101889Y100111
X80111Y101889
X81889Y100111
X3889Y100111
X2111Y107889
X3889Y106111
X22111Y107889
X23889Y106111
X80111Y107889
X81889Y106111
X100111Y107889
X101889Y106111
X100111Y127889
X101889Y126111
X80111Y127889
X81889Y126111
X22111Y127889
X23889Y126111
X2111Y127889
X3889Y126111
X28111Y3889
X106111Y3889
X107889Y2111
X126111Y3889
X127889Y2111
X126111Y23889
X127889Y22111
X106111Y23889
X107889Y22111
X29889Y2111
X48111Y3889
X49889Y2111
X48111Y23889
X49889Y22111
X106111Y29889
X107889Y28111
X126111Y29889
X127889Y28111
X126111Y49889
X127889Y48111
X106111Y49889
X107889Y48111
X28111Y23889
X29889Y22111
X28111Y29889
X54111Y75889
X29889Y28111
X106111Y55889
X107889Y54111
X126111Y55889
X127889Y54111
X126111Y75889
X127889Y74111
X106111Y75889
X107889Y74111
X48111Y29889
X49889Y28111
X48111Y49889
X49889Y48111
X28111Y49889
X106111Y81889
X107889Y80111
X126111Y81889
X127889Y80111
X126111Y101889
X127889Y100111
X106111Y101889
X107889Y100111
X29889Y48111
X28111Y55889
X29889Y54111
X48111Y55889
X49889Y54111
X106111Y107889
X107889Y106111
X126111Y107889
X127889Y106111
X126111Y127889
X127889Y126111
X106111Y127889
X107889Y126111
X48111Y75889
X49889Y74111
X28111Y75889
X29889Y74111
X28111Y81889
M30